<svg width="32" height="32" viewBox="0 0 32 32" fill="none" xmlns="http://www.w3.org/2000/svg">
<g clip-path="url(#clip0_3_1133)">
<path d="M16 4C9.37264 4 4 9.37264 4 16C4 21.6275 7.87456 26.3498 13.1013 27.6467V19.6672H10.6269V16H13.1013V14.4198C13.1013 10.3355 14.9498 8.4424 18.9597 8.4424C19.72 8.4424 21.0318 8.59168 21.5685 8.74048V12.0645C21.2853 12.0347 20.7933 12.0198 20.1822 12.0198C18.2147 12.0198 17.4544 12.7653 17.4544 14.703V16H21.3741L20.7006 19.6672H17.4544V27.9122C23.3963 27.1946 28.0005 22.1354 28.0005 16C28 9.37264 22.6274 4 16 4Z" fill="white"/>
</g>
<defs>
<clipPath id="clip0_3_1133">
<rect width="24" height="24" fill="white" transform="translate(4 4)"/>
</clipPath>
</defs>
</svg>
