<svg width="500" height="304" viewBox="0 0 500 304" fill="none" xmlns="http://www.w3.org/2000/svg">
<path d="M16.3412 156.967H18.2801V203.1C18.2801 204.096 18.4339 204.781 18.7417 205.154C19.111 205.466 19.8495 205.684 20.9574 205.808L24.3734 206.182V208.329C20.3112 209.201 16.5567 209.637 13.1099 209.637C9.60166 209.637 6.89349 209.326 4.98547 208.703C3.07746 208.018 1.75415 206.991 1.01556 205.621C0.338525 204.189 0 202.259 0 199.831V159.115L16.3412 156.967ZM48.6544 156.967H50.5933V203.1C50.5933 204.096 50.7471 204.781 51.0549 205.154C51.4242 205.466 52.1627 205.684 53.2706 205.808L56.6866 206.182V208.329C52.6244 209.201 48.8699 209.637 45.4231 209.637C41.9149 209.637 39.2067 209.326 37.2987 208.703C35.3907 208.018 34.0673 206.991 33.3288 205.621C32.6517 204.189 32.3132 202.259 32.3132 199.831V159.115L48.6544 156.967Z" fill="white"/>
<path d="M108.238 209.077C104.976 209.077 103.345 207.271 103.345 203.66V171.068C103.345 168.08 103.098 165.807 102.606 164.251C102.114 162.632 101.221 161.48 99.9286 160.796C98.6361 160.111 96.7588 159.768 94.2969 159.768C91.5272 159.768 88.7575 160.08 85.9877 160.702V204.501C85.9877 205.185 86.1109 205.652 86.357 205.901C86.6648 206.15 87.2803 206.368 88.2035 206.555L91.0655 207.115V209.077H62.076V207.115L65.1227 206.555C66.0459 206.368 66.6306 206.15 66.8768 205.901C67.1845 205.652 67.3384 205.185 67.3384 204.501V179.94C67.3384 177.263 68.1386 174.99 69.7388 173.123C71.3391 171.193 73.5548 169.854 76.3861 169.107V167.893L64.4764 165.652V164.158C74.5704 159.364 85.2184 156.967 96.4203 156.967C105.591 156.967 112.146 158.368 116.085 161.169C120.024 163.908 121.994 168.111 121.994 173.776V204.501C121.994 205.185 122.117 205.652 122.363 205.901C122.671 206.15 123.286 206.368 124.21 206.555L127.256 207.115V209.077H108.238Z" fill="white"/>
<path d="M167.206 181.247C163.144 181.683 160.005 182.524 157.789 183.769C155.635 184.952 154.127 186.57 153.266 188.625C152.404 190.679 151.973 193.388 151.973 196.75C151.973 202.415 153.943 205.248 157.882 205.248C159.051 205.248 160.128 204.874 161.113 204.127L162.221 206.088C158.836 208.828 154.22 210.197 148.372 210.197C138.217 210.197 133.139 205.901 133.139 197.31C133.139 193.263 134.308 189.932 136.647 187.317C138.986 184.703 142.648 182.679 147.634 181.247C152.619 179.815 159.143 178.882 167.206 178.446V172.189C167.206 168.267 166.314 165.496 164.529 163.877C162.744 162.259 160.036 161.449 156.405 161.449C152.958 161.449 149.819 161.823 146.988 162.57C144.218 163.317 141.448 164.438 138.678 165.932L137.017 163.504C144.033 159.146 152.804 156.967 163.329 156.967C170.838 156.967 176.47 158.274 180.224 160.889C183.978 163.442 185.856 167.831 185.856 174.057V204.501C185.856 205.185 185.979 205.652 186.225 205.901C186.533 206.15 187.148 206.368 188.072 206.555L191.118 207.115V209.077H172.1C168.837 209.077 167.206 207.271 167.206 203.66V181.247Z" fill="white"/>
<path d="M220.42 198.897C222.205 200.703 224.021 202.166 225.867 203.287C227.775 204.407 229.96 204.968 232.422 204.968C234.761 204.968 236.33 204.314 237.131 203.006C237.931 201.699 238.331 199.24 238.331 195.629V164.344C238.331 163.659 238.177 163.193 237.869 162.943C237.623 162.694 237.038 162.477 236.115 162.29L233.068 161.729V159.768L255.041 156.967H256.98V194.508C256.98 199.8 255.564 203.753 252.733 206.368C249.902 208.921 245.132 210.197 238.423 210.197C234.361 210.197 230.76 209.388 227.621 207.769C224.544 206.15 222.082 204.22 220.235 201.979C220.235 204.096 219.743 205.808 218.758 207.115C217.773 208.423 216.327 209.077 214.419 209.077H196.508V207.115L199.555 206.555C200.478 206.368 201.063 206.15 201.309 205.901C201.617 205.652 201.771 205.185 201.771 204.501V164.344C201.771 163.659 201.617 163.193 201.309 162.943C201.063 162.694 200.478 162.477 199.555 162.29L196.508 161.729V159.768L218.481 156.967H220.42V198.897Z" fill="white"/>
<path d="M289.164 156.967H291.103V203.1C291.103 204.096 291.257 204.781 291.565 205.154C291.934 205.466 292.673 205.684 293.781 205.808L297.197 206.182V208.329C293.134 209.201 289.38 209.637 285.933 209.637C282.425 209.637 279.717 209.326 277.809 208.703C275.901 208.018 274.577 206.991 273.839 205.621C273.162 204.189 272.823 202.259 272.823 199.831V159.115L289.164 156.967Z" fill="white"/>
<path d="M363.188 192.827C363.188 196.687 362.327 199.894 360.603 202.446C358.88 204.936 355.987 206.866 351.925 208.236C347.863 209.544 342.354 210.197 335.399 210.197C328.444 210.197 322.935 209.544 318.873 208.236C314.811 206.866 311.918 204.936 310.195 202.446C308.471 199.894 307.61 196.687 307.61 192.827V164.344C307.61 163.659 307.456 163.193 307.148 162.943C306.902 162.694 306.317 162.477 305.394 162.29L302.347 161.729V159.768L324.32 156.967H326.259V195.629C326.259 198.742 326.505 201.139 326.997 202.82C327.49 204.438 328.382 205.621 329.675 206.368C331.029 207.053 332.937 207.396 335.399 207.396C337.861 207.396 339.738 207.053 341.031 206.368C342.385 205.621 343.308 204.407 343.8 202.726C344.293 201.045 344.539 198.68 344.539 195.629V164.344C344.539 163.659 344.385 163.193 344.077 162.943C343.831 162.694 343.246 162.477 342.323 162.29L339.276 161.729V159.768L361.25 156.967H363.188V192.827Z" fill="white"/>
<path d="M393.064 175.644C393.064 177.387 393.526 178.664 394.449 179.473C395.372 180.282 396.573 180.687 398.05 180.687H408.39V183.489H398.05C395.219 183.489 393.803 185.17 393.803 188.531V195.629C393.803 198.742 394.049 201.139 394.542 202.82C395.096 204.438 396.05 205.621 397.404 206.368C398.819 207.053 400.85 207.396 403.497 207.396C406.144 207.396 408.144 207.053 409.498 206.368C410.914 205.621 411.868 204.407 412.36 202.726C412.914 201.045 413.191 198.68 413.191 195.629V158.928L431.009 156.78H431.84V192.827C431.84 196.687 430.948 199.894 429.163 202.446C427.439 204.936 424.485 206.866 420.3 208.236C416.176 209.544 410.575 210.197 403.497 210.197C396.48 210.197 390.972 209.575 386.971 208.329C382.97 207.022 380.17 205.217 378.57 202.913C377.031 200.547 376.262 197.652 376.262 194.228C376.262 187.068 380.478 182.897 388.91 181.714C384.848 181.029 381.801 179.722 379.77 177.792C377.8 175.862 376.815 173.185 376.815 169.761C376.815 165.714 378.354 162.632 381.432 160.515C384.571 158.399 388.571 157.34 393.434 157.34C396.265 157.34 398.604 157.683 400.45 158.368C402.297 159.052 404.112 160.08 405.897 161.449L404.236 163.41C403.497 162.788 402.604 162.259 401.558 161.823C400.512 161.325 399.558 161.076 398.696 161.076C396.48 161.076 394.972 161.729 394.172 163.037C393.434 164.282 393.064 166.337 393.064 169.2V175.644Z" fill="white"/>
<path d="M465.274 207.582C469.029 207.582 471.983 207.053 474.137 205.995C476.292 204.936 477.369 203.318 477.369 201.139C477.369 199.146 476.907 197.559 475.984 196.376C475.061 195.131 473.676 194.041 471.829 193.107C469.983 192.174 467.121 190.991 463.243 189.559C458.504 187.753 454.842 186.228 452.257 184.983C449.733 183.675 447.702 182.026 446.163 180.033C444.625 178.041 443.855 175.488 443.855 172.376C443.855 167.084 446.286 163.193 451.149 160.702C456.073 158.212 462.412 156.967 470.167 156.967C473.553 156.967 476.938 157.247 480.323 157.807C483.708 158.368 486.786 159.146 489.555 160.142L488.817 173.59H486.878C485.647 168.484 483.647 164.873 480.877 162.757C478.107 160.64 474.66 159.582 470.537 159.582C467.213 159.582 464.628 160.142 462.782 161.263C460.935 162.321 460.012 163.971 460.012 166.212C460.012 167.831 460.443 169.169 461.304 170.228C462.166 171.286 463.52 172.282 465.367 173.216C467.213 174.15 470.075 175.364 473.953 176.858C479.123 178.85 482.97 180.531 485.493 181.901C488.078 183.271 490.048 184.952 491.402 186.944C492.817 188.936 493.525 191.551 493.525 194.788C493.525 198.15 492.725 200.952 491.125 203.193C489.525 205.372 486.663 207.084 482.539 208.329C478.477 209.575 472.845 210.197 465.644 210.197C462.32 210.197 458.719 209.917 454.842 209.357C450.964 208.859 447.856 208.112 445.517 207.115L446.256 193.481H448.194C449.795 198.835 452.01 202.539 454.842 204.594C457.673 206.586 461.15 207.582 465.274 207.582Z" fill="white"/>
<path d="M282.163 140.317C283.625 137.295 286.207 134.761 289.911 132.714C293.615 130.667 298.147 129.4 303.508 128.913L340.642 141.34V123.942H362.572V147.334H282.163V140.317Z" fill="#D4D4D4"/>
<path d="M493.52 148.047C488.956 149.52 484.229 150.257 479.338 150.257C474.367 150.257 470.74 149.356 468.457 147.555C466.094 145.672 464.912 143.257 464.912 140.31C464.912 137.526 465.686 135.275 467.235 133.555C468.784 131.754 470.74 130.321 473.103 129.257C475.385 128.193 478.686 126.924 483.006 125.45C486.348 124.386 489.16 123.444 491.442 122.625C493.643 121.725 495.802 120.702 497.921 119.555L500 122.503C494.457 125.532 485.852 130.926 485.852 130.926C481.324 133.769 476.231 136.953 476.231 140.31C476.797 143.434 479.626 144.003 481.89 144.854C484.154 145.345 486.755 145.713 488.141 145.713C489.445 145.713 490.423 145.59 491.075 145.345C491.727 145.099 492.175 144.935 492.42 144.854L493.52 148.047Z" fill="#D4D4D4"/>
<path d="M149.296 145.016C149.296 147.76 147.932 149.627 145.205 150.616H146.334C149.484 150.616 152.235 149.694 154.586 147.85C156.937 146.005 158.301 143.576 158.677 140.562L168.129 142.519C167.188 146.118 164.72 148.794 160.723 150.549C156.679 152.303 151.929 153.18 146.475 153.18H135.965V151.426L137.87 151.089C139.374 150.819 140.456 150.504 141.114 150.144C141.725 149.739 142.031 149.177 142.031 148.457C142.031 147.557 141.655 146.95 140.903 146.635C140.103 146.275 138.763 146.095 136.882 146.095V141.102C139.045 140.382 140.95 140.023 142.595 140.023C144.805 140.023 146.475 140.427 147.603 141.237C148.732 142.002 149.296 143.261 149.296 145.016Z" fill="#D4D4D4"/>
<path d="M37.7517 56.4626C46.5944 56.4626 52.7163 56.1239 56.1173 55.4464C60.1986 54.6723 63.0166 52.8335 64.5714 49.9303C66.1261 46.9303 66.9035 42.5754 66.9035 36.8657C66.9035 34.4464 66.3205 32.027 65.1544 29.6076C67.195 28.8334 69.6729 28.156 72.5881 27.5753C75.5033 26.9947 78.3699 26.7044 81.1879 26.7044C86.5324 26.7044 90.2736 27.8173 92.4114 30.0431C94.6464 32.1721 95.7638 35.4141 95.7638 39.769C95.7638 44.5109 93.6746 48.7206 89.4962 52.398C85.4149 55.9787 78.4185 58.2529 68.5069 59.2206C74.9203 59.8013 79.8761 60.7691 83.3743 62.1239C86.9697 63.382 89.5934 65.4142 91.2453 68.2207C92.8973 70.9304 93.7232 74.753 93.7232 79.6885V101.027C93.7232 102.092 93.9176 102.818 94.3063 103.205C94.7922 103.592 95.7639 103.931 97.2215 104.221L102.032 105.092V107.995H72.0051C66.8549 107.995 64.2799 105.237 64.2799 99.7208V77.6562C64.2799 72.3336 63.5996 68.4142 62.2392 65.8981C60.976 63.382 58.5467 61.882 54.9513 61.3981C52.3276 61.011 46.5944 60.8174 37.7517 60.8174V101.027C37.7517 102.092 37.946 102.818 38.3347 103.205C38.8206 103.592 39.7923 103.931 41.2499 104.221L45.7684 105.092V107.995H0V105.092L4.81006 104.221C6.26766 103.931 7.1908 103.592 7.57949 103.205C8.06536 102.818 8.30828 102.092 8.30828 101.027V38.4625C8.30828 37.398 8.06536 36.6722 7.57949 36.2851C7.1908 35.898 6.26766 35.5593 4.81006 35.2689L0 34.398V31.3496L34.6907 26.9947H37.7517V56.4626Z" fill="white"/>
<path d="M148.21 92.1724C151.028 94.9789 153.894 97.2531 156.81 98.995C159.822 100.737 163.272 101.608 167.159 101.608C170.851 101.608 173.329 100.592 174.592 98.5595C175.856 96.5273 176.487 92.7047 176.487 87.0917V38.4625C176.487 37.398 176.244 36.6722 175.758 36.2851C175.37 35.898 174.447 35.5593 172.989 35.2689L168.179 34.398V31.3496L202.87 26.9947H205.931V85.3498C205.931 93.5757 203.696 99.7208 199.226 103.785C194.756 107.753 187.225 109.737 176.633 109.737C170.22 109.737 164.535 108.479 159.579 105.963C154.72 103.447 150.834 100.447 147.918 96.9627C147.918 100.253 147.141 102.914 145.586 104.947C144.031 106.979 141.748 107.995 138.736 107.995H110.458V104.947L115.268 104.076C116.726 103.785 117.649 103.447 118.038 103.06C118.524 102.672 118.766 101.947 118.766 100.882V38.4625C118.766 37.398 118.524 36.6722 118.038 36.2851C117.649 35.898 116.726 35.5593 115.268 35.2689L110.458 34.398V31.3496L145.149 26.9947H148.21V92.1724Z" fill="white"/>
<path d="M253.098 56.0271C253.098 58.7368 253.827 60.7207 255.285 61.9787C256.742 63.2368 258.637 63.8658 260.97 63.8658H277.295V68.2207H260.97C256.5 68.2207 254.265 70.8336 254.265 76.0594V87.0917C254.265 91.9305 254.653 95.6563 255.431 98.2692C256.305 100.785 257.811 102.624 259.949 103.785C262.184 104.85 265.391 105.382 269.569 105.382C273.748 105.382 276.906 104.85 279.044 103.785C281.279 102.624 282.785 100.737 283.562 98.1241C284.437 95.5111 284.874 91.8337 284.874 87.0917V30.0431L313.006 26.7044H314.317V82.7369C314.317 88.7369 312.908 93.7208 310.09 97.6886C307.37 101.56 302.705 104.56 296.097 106.689C289.587 108.721 280.744 109.737 269.569 109.737C258.492 109.737 249.795 108.769 243.478 106.834C237.162 104.802 232.741 101.995 230.214 98.4144C227.785 94.7369 226.57 90.2369 226.57 84.9143C226.57 73.7852 233.227 67.3013 246.539 65.4626C240.126 64.3981 235.316 62.3658 232.109 59.3658C229 56.3658 227.445 52.2045 227.445 46.8819C227.445 40.5915 229.874 35.8012 234.733 32.5108C239.689 29.2205 246.005 27.5753 253.682 27.5753C258.151 27.5753 261.844 28.1076 264.759 29.1721C267.674 30.2367 270.541 31.8334 273.359 33.9625L270.735 37.0109C269.569 36.0431 268.16 35.2205 266.508 34.5431C264.856 33.7689 263.35 33.3818 261.99 33.3818C258.492 33.3818 256.111 34.398 254.848 36.4302C253.682 38.3657 253.098 41.5593 253.098 46.0109V56.0271Z" fill="white"/>
<path d="M356.025 104.947L361.418 104.076C362.779 103.882 363.702 103.592 364.188 103.205C364.673 102.721 364.916 101.898 364.916 100.737V50.5109C364.916 44.1238 363.847 39.8173 361.71 37.5915C359.669 35.2689 356.122 34.1076 351.069 34.1076C343.976 34.1076 336.931 36.3335 329.934 40.7851L327.456 37.156C337.757 30.3818 350.098 26.9947 364.479 26.9947C375.168 26.9947 382.796 29.1237 387.363 33.3818C392.028 37.6399 394.36 44.3174 394.36 53.4142V100.882C394.36 101.947 394.554 102.672 394.943 103.06C395.429 103.447 396.4 103.785 397.858 104.076L402.668 104.947V107.995H356.025V104.947Z" fill="white"/>
<path d="M464.435 26.9947C476.29 26.9947 485.181 30.3818 491.109 37.156C497.036 43.8335 500 53.5109 500 66.1884C500 76.6401 498.494 85.0595 495.481 91.4466C492.469 97.737 487.805 102.334 481.489 105.237C475.269 108.043 467.058 109.447 456.855 109.447C451.025 109.447 445.535 109.011 440.384 108.14C435.331 107.269 431.007 106.011 427.412 104.366L410.795 53.1239L435.72 47.0271L453.648 104.656H455.398C460.742 104.656 464.386 101.56 466.329 95.366C468.273 89.1724 469.245 79.6401 469.245 66.7691C469.245 55.3497 468.03 46.9303 465.601 41.5109C463.269 35.9947 459.479 33.2367 454.231 33.2367C451.122 33.2367 448.207 34.0109 445.486 35.5593L443.154 31.2044C445.292 30.0431 448.255 29.0754 452.045 28.3012C455.835 27.4302 459.965 26.9947 464.435 26.9947Z" fill="white"/>
<path d="M310.15 0H311.776V20.2703H294.402V1.68095L310.15 0Z" fill="#D4D4D4"/>
<path d="M165.204 118.929V116.632H178.559C180.017 116.632 181.058 116.913 181.683 117.474C182.256 118.087 182.542 119.082 182.542 120.459V128.956H184.885C186.395 128.956 187.462 128.777 188.087 128.42C188.712 128.063 189.024 127.45 189.024 126.583V116.632H201.754V125.052C201.754 126.787 201.39 128.063 200.661 128.879C199.88 129.747 198.344 130.359 196.053 130.716C193.71 131.074 190.091 131.252 185.197 131.252C179.366 131.252 174.238 130.691 169.812 129.568V118.929H165.204Z" fill="#D4D4D4"/>
<path d="M83.1988 264.343C84.6507 264.343 85.656 264.288 86.2144 264.177C86.8845 264.05 87.3473 263.749 87.6025 263.273C87.8578 262.781 87.9855 262.067 87.9855 261.132C87.9855 260.735 87.8897 260.339 87.6983 259.942C88.0333 259.815 88.4402 259.704 88.9189 259.609C89.3976 259.514 89.8682 259.466 90.331 259.466C91.2085 259.466 91.8228 259.649 92.1738 260.014C92.5408 260.363 92.7243 260.894 92.7243 261.607C92.7243 262.385 92.3813 263.074 91.6952 263.677C91.025 264.264 89.8762 264.637 88.2487 264.795C89.3018 264.89 90.1156 265.049 90.69 265.271C91.2803 265.477 91.7111 265.81 91.9824 266.27C92.2536 266.714 92.3892 267.341 92.3892 268.15V271.647C92.3892 271.821 92.4212 271.94 92.485 272.003C92.5648 272.067 92.7243 272.122 92.9637 272.17L93.7535 272.313V272.788H88.8232C87.9775 272.788 87.5547 272.336 87.5547 271.432V267.816C87.5547 266.944 87.443 266.302 87.2196 265.89C87.0122 265.477 86.6133 265.231 86.0229 265.152C85.5921 265.089 84.6507 265.057 83.1988 265.057V271.647C83.1988 271.821 83.2307 271.94 83.2945 272.003C83.3743 272.067 83.5338 272.122 83.7732 272.17L84.5151 272.313V272.788H77V272.313L77.7898 272.17C78.0291 272.122 78.1807 272.067 78.2445 272.003C78.3243 271.94 78.3642 271.821 78.3642 271.647V261.393C78.3642 261.219 78.3243 261.1 78.2445 261.037C78.1807 260.973 78.0291 260.918 77.7898 260.87L77 260.727V260.228L82.6962 259.514H83.1988V264.343Z" fill="white"/>
<path d="M101.336 270.195C101.799 270.655 102.269 271.028 102.748 271.314C103.243 271.599 103.809 271.742 104.447 271.742C105.054 271.742 105.46 271.575 105.668 271.242C105.875 270.909 105.979 270.283 105.979 269.363V261.393C105.979 261.219 105.939 261.1 105.859 261.037C105.796 260.973 105.644 260.918 105.405 260.87L104.615 260.727V260.228L110.311 259.514H110.814V269.077C110.814 270.425 110.447 271.432 109.713 272.099C108.979 272.749 107.742 273.074 106.003 273.074C104.95 273.074 104.016 272.868 103.203 272.455C102.405 272.043 101.767 271.551 101.288 270.98C101.288 271.52 101.16 271.956 100.905 272.289C100.65 272.622 100.275 272.788 99.7802 272.788H95.1371V272.289L95.9269 272.146C96.1663 272.099 96.3178 272.043 96.3817 271.98C96.4614 271.916 96.5013 271.797 96.5013 271.623V261.393C96.5013 261.219 96.4614 261.1 96.3817 261.037C96.3178 260.973 96.1663 260.918 95.9269 260.87L95.1371 260.727V260.228L100.833 259.514H101.336V270.195Z" fill="white"/>
<path d="M99.4595 275.405V274.692H103.552C103.999 274.692 104.318 274.779 104.51 274.953C104.685 275.144 104.773 275.453 104.773 275.881V278.522H105.491C105.953 278.522 106.281 278.466 106.472 278.355C106.664 278.244 106.759 278.054 106.759 277.784V274.692H110.66V277.308C110.66 277.848 110.549 278.244 110.325 278.498C110.086 278.767 109.615 278.958 108.913 279.069C108.195 279.18 107.086 279.235 105.587 279.235C103.799 279.235 102.228 279.061 100.872 278.712V275.405H99.4595Z" fill="white"/>
<path d="M125.403 272.788C124.558 272.788 124.135 272.329 124.135 271.409V263.106C124.135 262.345 124.071 261.766 123.944 261.37C123.816 260.957 123.585 260.664 123.249 260.489C122.914 260.315 122.428 260.228 121.79 260.228C121.071 260.228 120.353 260.307 119.635 260.466V271.623C119.635 271.797 119.667 271.916 119.731 271.98C119.811 272.043 119.971 272.099 120.21 272.146L120.952 272.289V272.788H113.437V272.289L114.227 272.146C114.466 272.099 114.617 272.043 114.681 271.98C114.761 271.916 114.801 271.797 114.801 271.623V265.366C114.801 264.684 115.008 264.105 115.423 263.63C115.838 263.138 116.412 262.797 117.146 262.607V262.297L114.059 261.726V261.346C116.676 260.125 119.436 259.514 122.34 259.514C124.717 259.514 126.417 259.871 127.438 260.585C128.459 261.282 128.97 262.353 128.97 263.796V271.623C128.97 271.797 129.001 271.916 129.065 271.98C129.145 272.043 129.305 272.099 129.544 272.146L130.334 272.289V272.788H125.403Z" fill="white"/>
<path d="M137.699 272.408C138.672 272.408 139.438 272.273 139.996 272.003C140.555 271.734 140.834 271.321 140.834 270.766C140.834 270.259 140.714 269.854 140.475 269.553C140.236 269.236 139.877 268.958 139.398 268.72C138.919 268.483 138.177 268.181 137.172 267.816C135.943 267.357 134.994 266.968 134.324 266.651C133.67 266.318 133.143 265.897 132.744 265.39C132.345 264.882 132.146 264.232 132.146 263.439C132.146 262.091 132.776 261.1 134.037 260.466C135.313 259.831 136.957 259.514 138.967 259.514C139.845 259.514 140.722 259.585 141.6 259.728C142.477 259.871 143.275 260.069 143.993 260.323L143.802 263.749H143.299C142.98 262.448 142.461 261.528 141.743 260.989C141.025 260.45 140.132 260.18 139.063 260.18C138.201 260.18 137.531 260.323 137.052 260.608C136.574 260.878 136.334 261.298 136.334 261.869C136.334 262.282 136.446 262.622 136.669 262.892C136.893 263.162 137.244 263.415 137.722 263.653C138.201 263.891 138.943 264.201 139.948 264.581C141.289 265.089 142.286 265.517 142.94 265.866C143.61 266.215 144.121 266.643 144.472 267.15C144.839 267.658 145.022 268.324 145.022 269.149C145.022 270.005 144.815 270.719 144.4 271.29C143.985 271.845 143.243 272.281 142.174 272.598C141.121 272.915 139.661 273.074 137.794 273.074C136.933 273.074 135.999 273.003 134.994 272.86C133.989 272.733 133.183 272.543 132.577 272.289L132.768 268.816H133.271C133.686 270.18 134.26 271.123 134.994 271.647C135.728 272.154 136.63 272.408 137.699 272.408Z" fill="white"/>
<path d="M154.686 261.417L153.466 264.748H149.588C148.95 264.748 148.416 264.557 147.985 264.177C147.57 263.78 147.363 263.225 147.363 262.511C147.363 262.258 147.403 261.948 147.482 261.584L147.841 260.014H148.416V260.489C148.432 260.791 148.519 260.989 148.679 261.084C148.854 261.179 149.158 261.227 149.588 261.227H154.543L154.686 261.417ZM154.686 268.364L153.466 271.694H149.588C148.95 271.694 148.416 271.504 147.985 271.123C147.57 270.727 147.363 270.172 147.363 269.458C147.363 269.204 147.403 268.895 147.482 268.53L147.841 266.96H148.416V267.436C148.432 267.737 148.519 267.935 148.679 268.031C148.854 268.126 149.158 268.173 149.588 268.173H154.543L154.686 268.364Z" fill="white"/>
<path d="M162.664 261.869C163.382 261.203 164.204 260.648 165.13 260.204C166.055 259.744 167.18 259.514 168.504 259.514C171.121 259.514 172.429 260.688 172.429 263.035V271.647C172.429 271.821 172.461 271.94 172.525 272.003C172.605 272.067 172.764 272.122 173.004 272.17L173.793 272.313V272.788H168.863C168.018 272.788 167.595 272.336 167.595 271.432V262.559C167.595 261.893 167.491 261.433 167.284 261.179C167.076 260.926 166.749 260.799 166.302 260.799C165.648 260.799 165.01 260.989 164.388 261.37C163.765 261.75 163.207 262.194 162.712 262.702V271.647C162.712 271.821 162.744 271.94 162.808 272.003C162.888 272.067 163.047 272.122 163.287 272.17L164.029 272.313V272.788H156.513V272.313L157.303 272.17C157.543 272.122 157.694 272.067 157.758 272.003C157.838 271.94 157.878 271.821 157.878 271.647V261.393C157.878 261.219 157.838 261.1 157.758 261.037C157.694 260.973 157.543 260.918 157.303 260.87L156.513 260.727V260.228L162.21 259.514H162.664V261.869Z" fill="white"/>
<path d="M182.99 261.417L181.77 264.748H177.893C177.254 264.748 176.72 264.557 176.289 264.177C175.874 263.78 175.667 263.225 175.667 262.511C175.667 262.258 175.707 261.948 175.786 261.584L176.146 260.014H176.72V260.489C176.736 260.791 176.824 260.989 176.983 261.084C177.159 261.179 177.462 261.227 177.893 261.227H182.847L182.99 261.417ZM182.99 268.364L181.77 271.694H177.893C177.254 271.694 176.72 271.504 176.289 271.123C175.874 270.727 175.667 270.172 175.667 269.458C175.667 269.204 175.707 268.895 175.786 268.53L176.146 266.96H176.72V267.436C176.736 267.737 176.824 267.935 176.983 268.031C177.159 268.126 177.462 268.173 177.893 268.173H182.847L182.99 268.364Z" fill="white"/>
<path d="M190.969 261.869C191.687 261.203 192.508 260.648 193.434 260.204C194.359 259.744 195.484 259.514 196.808 259.514C199.425 259.514 200.733 260.688 200.733 263.035V271.647C200.733 271.821 200.765 271.94 200.829 272.003C200.909 272.067 201.069 272.122 201.308 272.17L202.098 272.313V272.788H197.167C196.322 272.788 195.899 272.336 195.899 271.432V262.559C195.899 261.893 195.795 261.433 195.588 261.179C195.38 260.926 195.053 260.799 194.606 260.799C193.952 260.799 193.314 260.989 192.692 261.37C192.07 261.75 191.511 262.194 191.016 262.702V271.647C191.016 271.821 191.048 271.94 191.112 272.003C191.192 272.067 191.352 272.122 191.591 272.17L192.333 272.313V272.788H184.818V272.313L185.607 272.17C185.847 272.122 185.998 272.067 186.062 272.003C186.142 271.94 186.182 271.821 186.182 271.647V261.393C186.182 261.219 186.142 261.1 186.062 261.037C185.998 260.973 185.847 260.918 185.607 260.87L184.818 260.727V260.228L190.514 259.514H190.969V261.869Z" fill="white"/>
<path d="M187.648 256.136C187.888 255.644 188.311 255.232 188.917 254.899C189.523 254.566 190.265 254.36 191.143 254.28L197.222 256.302V253.472H200.812V257.278H187.648V256.136Z" fill="white"/>
<path d="M200.357 248H200.692V252.306H197.294V248.357L200.357 248Z" fill="white"/>
<path d="M209.165 259.514H209.667V271.266C209.667 271.52 209.707 271.694 209.787 271.789C209.883 271.869 210.074 271.924 210.361 271.956L211.247 272.051V272.598C210.194 272.82 209.22 272.931 208.327 272.931C207.417 272.931 206.715 272.852 206.221 272.693C205.726 272.519 205.383 272.257 205.192 271.908C205.016 271.543 204.928 271.052 204.928 270.433V260.061L209.165 259.514Z" fill="white"/>
<path d="M218.661 272.408C219.634 272.408 220.4 272.273 220.959 272.003C221.517 271.734 221.796 271.321 221.796 270.766C221.796 270.259 221.677 269.854 221.437 269.553C221.198 269.236 220.839 268.958 220.36 268.72C219.882 268.483 219.14 268.181 218.135 267.816C216.906 267.357 215.957 266.968 215.286 266.651C214.632 266.318 214.106 265.897 213.707 265.39C213.308 264.882 213.109 264.232 213.109 263.439C213.109 262.091 213.739 261.1 214.999 260.466C216.276 259.831 217.919 259.514 219.93 259.514C220.807 259.514 221.685 259.585 222.562 259.728C223.44 259.871 224.238 260.069 224.956 260.323L224.764 263.749H224.262C223.942 262.448 223.424 261.528 222.706 260.989C221.988 260.45 221.094 260.18 220.025 260.18C219.164 260.18 218.494 260.323 218.015 260.608C217.536 260.878 217.297 261.298 217.297 261.869C217.297 262.282 217.409 262.622 217.632 262.892C217.855 263.162 218.206 263.415 218.685 263.653C219.164 263.891 219.906 264.201 220.911 264.581C222.251 265.089 223.248 265.517 223.903 265.866C224.573 266.215 225.083 266.643 225.434 267.15C225.801 267.658 225.985 268.324 225.985 269.149C225.985 270.005 225.777 270.719 225.363 271.29C224.948 271.845 224.206 272.281 223.137 272.598C222.084 272.915 220.624 273.074 218.757 273.074C217.895 273.074 216.962 273.003 215.957 272.86C214.951 272.733 214.146 272.543 213.539 272.289L213.731 268.816H214.233C214.648 270.18 215.223 271.123 215.957 271.647C216.691 272.154 217.592 272.408 218.661 272.408Z" fill="white"/>
<path d="M232.011 272.289L232.897 272.146C233.12 272.114 233.271 272.067 233.351 272.003C233.431 271.924 233.471 271.789 233.471 271.599V263.368C233.471 262.321 233.295 261.615 232.944 261.251C232.609 260.87 232.027 260.68 231.197 260.68C230.032 260.68 228.876 261.044 227.727 261.774L227.32 261.179C229.011 260.069 231.038 259.514 233.399 259.514C235.154 259.514 236.407 259.863 237.157 260.561C237.923 261.259 238.305 262.353 238.305 263.844V271.623C238.305 271.797 238.337 271.916 238.401 271.98C238.481 272.043 238.641 272.099 238.88 272.146L239.67 272.289V272.788H232.011V272.289Z" fill="white"/>
<path d="M257.111 271.623C257.111 271.797 257.143 271.916 257.207 271.98C257.287 272.043 257.446 272.099 257.686 272.146L258.476 272.289V272.788H253.545C252.7 272.788 252.277 272.329 252.277 271.409V263.487C252.277 262.615 252.213 261.956 252.085 261.512C251.974 261.052 251.734 260.719 251.367 260.513C251.016 260.291 250.474 260.18 249.74 260.18C249.006 260.18 248.455 260.291 248.089 260.513C247.737 260.719 247.498 261.052 247.37 261.512C247.259 261.956 247.203 262.615 247.203 263.487V266.365C247.634 265.905 248.057 265.541 248.471 265.271C248.902 265.001 249.405 264.867 249.979 264.867C250.378 264.867 250.713 264.946 250.984 265.105V268.316H250.602C249.596 267.793 248.926 267.46 248.591 267.317C248.256 267.158 248.001 267.079 247.825 267.079C247.41 267.079 247.203 267.269 247.203 267.65V271.623C247.203 271.797 247.235 271.916 247.299 271.98C247.378 272.043 247.538 272.099 247.777 272.146L248.519 272.289V272.788H241.004V272.289L241.794 272.146C242.033 272.099 242.185 272.043 242.249 271.98C242.329 271.916 242.368 271.797 242.368 271.623V264.296C242.368 262.726 242.927 261.536 244.044 260.727C245.177 259.918 247.075 259.514 249.74 259.514C252.404 259.514 254.295 259.918 255.412 260.727C256.545 261.536 257.111 262.726 257.111 264.296V271.623Z" fill="white"/>
<path d="M260.226 255.517C258.216 256.786 255.798 257.421 252.974 257.421C251.395 257.421 250.238 257.254 249.504 256.921C248.77 256.588 248.403 256.025 248.403 255.232C248.403 254.042 249.113 253.448 250.533 253.448C251.219 253.448 251.857 253.559 252.448 253.781V255.398C252.448 255.827 252.567 256.144 252.807 256.35C253.03 256.54 253.469 256.636 254.123 256.636C256.357 256.636 258.279 256.112 259.891 255.065L260.226 255.517Z" fill="white"/>
<path d="M267.98 272.075C268.523 272.075 269.018 271.924 269.464 271.623L269.751 272.194C269.369 272.447 268.922 272.646 268.411 272.788C267.917 272.947 267.294 273.026 266.544 273.026C262.444 273.026 260.394 270.973 260.394 266.865C260.394 264.327 261.112 262.472 262.548 261.298C263.999 260.109 265.954 259.514 268.411 259.514C271.076 259.514 272.951 259.895 274.036 260.656C275.137 261.417 275.687 262.543 275.687 264.034V271.647C275.687 271.821 275.719 271.94 275.783 272.003C275.863 272.067 276.022 272.122 276.261 272.17L277.051 272.313V272.788H272.121C271.275 272.788 270.852 272.336 270.852 271.432V263.106C270.852 262.012 270.685 261.259 270.35 260.846C270.031 260.434 269.456 260.228 268.627 260.228C267.685 260.228 266.975 260.489 266.497 261.013C266.034 261.536 265.731 262.218 265.587 263.059C265.443 263.883 265.372 264.922 265.372 266.175C265.372 267.999 265.555 269.442 265.922 270.505C266.289 271.551 266.975 272.075 267.98 272.075Z" fill="white"/>
<path d="M287.423 265.699C286.37 265.81 285.556 266.024 284.982 266.342C284.424 266.643 284.033 267.055 283.809 267.579C283.586 268.102 283.474 268.792 283.474 269.648C283.474 271.091 283.985 271.813 285.006 271.813C285.309 271.813 285.588 271.718 285.844 271.528L286.131 272.027C285.253 272.725 284.057 273.074 282.541 273.074C279.908 273.074 278.592 271.98 278.592 269.791C278.592 268.76 278.895 267.912 279.501 267.246C280.108 266.579 281.057 266.064 282.349 265.699C283.642 265.334 285.333 265.097 287.423 264.986V263.392C287.423 262.393 287.192 261.687 286.729 261.274C286.266 260.862 285.564 260.656 284.623 260.656C283.729 260.656 282.916 260.751 282.182 260.941C281.464 261.132 280.746 261.417 280.028 261.798L279.597 261.179C281.416 260.069 283.69 259.514 286.418 259.514C287.902 259.514 289.122 259.768 290.08 260.275C290.128 260.037 290.152 259.792 290.152 259.538C290.152 259.03 290.08 258.61 289.936 258.277H292.593C293.279 258.277 293.622 258.61 293.622 259.276C293.622 260.212 292.816 260.822 291.205 261.108C291.907 261.837 292.258 262.789 292.258 263.963V271.623C292.258 271.797 292.29 271.916 292.354 271.98C292.433 272.043 292.593 272.099 292.832 272.146L293.622 272.289V272.788H288.692C287.846 272.788 287.423 272.329 287.423 271.409V265.699Z" fill="white"/>
<path d="M301.049 272.408C302.023 272.408 302.789 272.273 303.347 272.003C303.905 271.734 304.185 271.321 304.185 270.766C304.185 270.259 304.065 269.854 303.826 269.553C303.586 269.236 303.227 268.958 302.749 268.72C302.27 268.483 301.528 268.181 300.523 267.816C299.294 267.357 298.345 266.968 297.675 266.651C297.021 266.318 296.494 265.897 296.095 265.39C295.696 264.882 295.497 264.232 295.497 263.439C295.497 262.091 296.127 261.1 297.388 260.466C298.664 259.831 300.307 259.514 302.318 259.514C303.195 259.514 304.073 259.585 304.951 259.728C305.828 259.871 306.626 260.069 307.344 260.323L307.152 263.749H306.65C306.331 262.448 305.812 261.528 305.094 260.989C304.376 260.45 303.483 260.18 302.414 260.18C301.552 260.18 300.882 260.323 300.403 260.608C299.925 260.878 299.685 261.298 299.685 261.869C299.685 262.282 299.797 262.622 300.02 262.892C300.244 263.162 300.595 263.415 301.073 263.653C301.552 263.891 302.294 264.201 303.299 264.581C304.639 265.089 305.637 265.517 306.291 265.866C306.961 266.215 307.472 266.643 307.823 267.15C308.19 267.658 308.373 268.324 308.373 269.149C308.373 270.005 308.166 270.719 307.751 271.29C307.336 271.845 306.594 272.281 305.525 272.598C304.472 272.915 303.012 273.074 301.145 273.074C300.284 273.074 299.35 273.003 298.345 272.86C297.34 272.733 296.534 272.543 295.928 272.289L296.119 268.816H296.622C297.037 270.18 297.611 271.123 298.345 271.647C299.079 272.154 299.98 272.408 301.049 272.408Z" fill="white"/>
<path d="M316.218 272.408C317.192 272.408 317.957 272.273 318.516 272.003C319.074 271.734 319.354 271.321 319.354 270.766C319.354 270.259 319.234 269.854 318.995 269.553C318.755 269.236 318.396 268.958 317.917 268.72C317.439 268.483 316.697 268.181 315.692 267.816C314.463 267.357 313.514 266.968 312.844 266.651C312.189 266.318 311.663 265.897 311.264 265.39C310.865 264.882 310.666 264.232 310.666 263.439C310.666 262.091 311.296 261.1 312.556 260.466C313.833 259.831 315.476 259.514 317.487 259.514C318.364 259.514 319.242 259.585 320.119 259.728C320.997 259.871 321.795 260.069 322.513 260.323L322.321 263.749H321.819C321.5 262.448 320.981 261.528 320.263 260.989C319.545 260.45 318.651 260.18 317.582 260.18C316.721 260.18 316.051 260.323 315.572 260.608C315.093 260.878 314.854 261.298 314.854 261.869C314.854 262.282 314.966 262.622 315.189 262.892C315.412 263.162 315.763 263.415 316.242 263.653C316.721 263.891 317.463 264.201 318.468 264.581C319.808 265.089 320.805 265.517 321.46 265.866C322.13 266.215 322.64 266.643 322.991 267.15C323.358 267.658 323.542 268.324 323.542 269.149C323.542 270.005 323.334 270.719 322.92 271.29C322.505 271.845 321.763 272.281 320.694 272.598C319.641 272.915 318.181 273.074 316.314 273.074C315.452 273.074 314.519 273.003 313.514 272.86C312.509 272.733 311.703 272.543 311.096 272.289L311.288 268.816H311.791C312.205 270.18 312.78 271.123 313.514 271.647C314.248 272.154 315.149 272.408 316.218 272.408Z" fill="white"/>
<path d="M341.463 271.623C341.463 271.797 341.495 271.916 341.559 271.98C341.639 272.043 341.798 272.099 342.037 272.146L342.827 272.289V272.788H337.897C337.051 272.788 336.628 272.329 336.628 271.409V263.487C336.628 262.615 336.565 261.956 336.437 261.512C336.325 261.052 336.086 260.719 335.719 260.513C335.368 260.291 334.825 260.18 334.091 260.18C333.358 260.18 332.807 260.291 332.44 260.513C332.089 260.719 331.85 261.052 331.722 261.512C331.61 261.956 331.555 262.615 331.555 263.487V266.365C331.985 265.905 332.408 265.541 332.823 265.271C333.254 265.001 333.756 264.867 334.331 264.867C334.73 264.867 335.065 264.946 335.336 265.105V268.316H334.953C333.948 267.793 333.278 267.46 332.943 267.317C332.608 267.158 332.352 267.079 332.177 267.079C331.762 267.079 331.555 267.269 331.555 267.65V271.623C331.555 271.797 331.586 271.916 331.65 271.98C331.73 272.043 331.89 272.099 332.129 272.146L332.871 272.289V272.788H325.356V272.289L326.146 272.146C326.385 272.099 326.536 272.043 326.6 271.98C326.68 271.916 326.72 271.797 326.72 271.623V264.296C326.72 262.726 327.278 261.536 328.395 260.727C329.528 259.918 331.427 259.514 334.091 259.514C336.756 259.514 338.647 259.918 339.764 260.727C340.897 261.536 341.463 262.726 341.463 264.296V271.623Z" fill="white"/>
<path d="M334.861 275.405V274.692H339.456C339.903 274.692 340.222 274.779 340.413 274.953C340.589 275.144 340.676 275.453 340.676 275.881V279.283H336.416V275.405H334.861Z" fill="white"/>
<path d="M368.679 271.623C368.679 271.797 368.711 271.916 368.774 271.98C368.854 272.043 369.014 272.099 369.253 272.146L370.043 272.289V272.788H364.682C364.155 272.788 363.892 272.535 363.892 272.027V271.218C363.381 271.742 362.751 272.186 362.001 272.551C361.251 272.899 360.39 273.074 359.416 273.074C357.741 273.074 356.528 272.741 355.778 272.075C355.044 271.409 354.678 270.41 354.678 269.077V263.106C354.678 262.345 354.614 261.766 354.486 261.37C354.358 260.957 354.135 260.664 353.816 260.489C353.497 260.315 353.034 260.228 352.428 260.228C351.774 260.228 351.087 260.307 350.369 260.466V269.553C350.369 270.457 350.409 271.084 350.489 271.432C350.585 271.781 350.832 271.956 351.231 271.956C351.454 271.956 351.686 271.884 351.925 271.742C352.18 271.599 352.412 271.393 352.619 271.123L353.074 271.528C352.42 272.527 351.287 273.026 349.675 273.026C348.207 273.026 347.115 272.622 346.397 271.813C345.678 270.988 345.319 269.712 345.319 267.983C345.319 266.46 345.527 265.271 345.942 264.415C346.373 263.558 347.019 262.956 347.88 262.607V262.297L344.793 261.726V261.346C347.41 260.125 350.138 259.514 352.978 259.514C355.308 259.514 356.975 259.871 357.98 260.585C359.001 261.282 359.512 262.353 359.512 263.796V269.363C359.512 270.251 359.64 270.877 359.895 271.242C360.15 271.591 360.605 271.766 361.259 271.766C361.786 271.766 362.248 271.647 362.647 271.409C363.062 271.155 363.461 270.822 363.844 270.41V261.393C363.844 261.219 363.804 261.1 363.724 261.037C363.661 260.973 363.509 260.918 363.27 260.87L362.456 260.727V260.228L368.176 259.514H368.679V271.623Z" fill="white"/>
<path d="M371.33 271.147C371.554 271.432 371.769 271.647 371.976 271.789C372.184 271.916 372.415 271.98 372.67 271.98C372.958 271.98 373.165 271.892 373.293 271.718C373.42 271.528 373.484 271.147 373.484 270.576V265.366C373.484 264.684 373.692 264.105 374.106 263.63C374.521 263.138 375.096 262.797 375.83 262.607V262.297L372.527 261.726V261.346C375.16 260.125 377.952 259.514 380.904 259.514C383.217 259.514 384.877 259.871 385.882 260.585C386.903 261.282 387.414 262.353 387.414 263.796V271.647C387.414 271.821 387.445 271.94 387.509 272.003C387.589 272.067 387.749 272.122 387.988 272.17L388.778 272.313V272.788H383.847C383.002 272.788 382.579 272.336 382.579 271.432V263.106C382.579 262.361 382.515 261.782 382.387 261.37C382.26 260.957 382.036 260.664 381.717 260.489C381.398 260.315 380.943 260.228 380.353 260.228C379.715 260.228 379.037 260.299 378.319 260.442V269.672C378.319 270.814 378.008 271.662 377.385 272.218C376.779 272.757 375.79 273.026 374.418 273.026C373.492 273.026 372.766 272.907 372.24 272.67C371.713 272.432 371.266 272.067 370.899 271.575L371.33 271.147Z" fill="white"/>
<path d="M394.333 272.289L395.219 272.146C395.442 272.114 395.594 272.067 395.674 272.003C395.754 271.924 395.793 271.789 395.793 271.599V263.368C395.793 262.321 395.618 261.615 395.267 261.251C394.932 260.87 394.349 260.68 393.52 260.68C392.355 260.68 391.198 261.044 390.049 261.774L389.642 261.179C391.334 260.069 393.36 259.514 395.722 259.514C397.477 259.514 398.729 259.863 399.479 260.561C400.245 261.259 400.628 262.353 400.628 263.844V271.623C400.628 271.797 400.66 271.916 400.724 271.98C400.803 272.043 400.963 272.099 401.202 272.146L401.992 272.289V272.788H394.333V272.289Z" fill="white"/>
<path d="M404.38 260.941C404.332 260.656 404.132 260.489 403.781 260.442L402.992 260.299V259.799H408.975L410.315 268.506L412.637 261.845H413.331L415.652 268.53L416.873 260.775C416.921 260.426 417.025 260.18 417.184 260.037C417.36 259.879 417.655 259.799 418.07 259.799H423V260.299L422.21 260.442C421.859 260.489 421.66 260.656 421.612 260.941L419.673 272.788H416.466L412.972 262.845L409.525 272.788H406.318L404.38 260.941Z" fill="white"/>
<path d="M150.067 290.44H150.57V302.192C150.57 302.446 150.61 302.62 150.689 302.715C150.785 302.795 150.977 302.85 151.264 302.882L152.149 302.977V303.524C151.096 303.746 150.123 303.857 149.229 303.857C148.32 303.857 147.618 303.778 147.123 303.619C146.629 303.445 146.286 303.183 146.094 302.834C145.919 302.47 145.831 301.978 145.831 301.359V290.987L150.067 290.44ZM158.444 290.44H158.946V302.192C158.946 302.446 158.986 302.62 159.066 302.715C159.162 302.795 159.353 302.85 159.64 302.882L160.526 302.977V303.524C159.473 303.746 158.5 303.857 157.606 303.857C156.697 303.857 155.995 303.778 155.5 303.619C155.005 303.445 154.662 303.183 154.471 302.834C154.295 302.47 154.208 301.978 154.208 301.359V290.987L158.444 290.44Z" fill="white"/>
<path d="M170.946 296.625C169.893 296.736 169.079 296.95 168.505 297.268C167.946 297.569 167.555 297.981 167.332 298.505C167.109 299.028 166.997 299.718 166.997 300.574C166.997 302.018 167.508 302.739 168.529 302.739C168.832 302.739 169.111 302.644 169.366 302.454L169.654 302.953C168.776 303.651 167.579 304 166.064 304C163.431 304 162.115 302.906 162.115 300.717C162.115 299.686 162.418 298.838 163.024 298.172C163.63 297.506 164.58 296.99 165.872 296.625C167.165 296.261 168.856 296.023 170.946 295.912V294.318C170.946 293.319 170.715 292.613 170.252 292.201C169.789 291.788 169.087 291.582 168.146 291.582C167.252 291.582 166.439 291.677 165.705 291.867C164.987 292.058 164.269 292.343 163.551 292.724L163.12 292.105C164.939 290.995 167.212 290.44 169.941 290.44C171.887 290.44 173.347 290.773 174.321 291.439C175.294 292.089 175.781 293.208 175.781 294.794V302.549C175.781 302.723 175.813 302.842 175.876 302.906C175.956 302.969 176.116 303.025 176.355 303.072L177.145 303.215V303.715H172.215C171.369 303.715 170.946 303.255 170.946 302.335V296.625Z" fill="white"/>
<path d="M186.344 292.343L185.124 295.674H181.247C180.608 295.674 180.074 295.483 179.643 295.103C179.228 294.706 179.021 294.151 179.021 293.438C179.021 293.184 179.061 292.875 179.14 292.51L179.499 290.94H180.074V291.415C180.09 291.717 180.178 291.915 180.337 292.01C180.513 292.105 180.816 292.153 181.247 292.153H186.201L186.344 292.343ZM186.344 299.29L185.124 302.62H181.247C180.608 302.62 180.074 302.43 179.643 302.049C179.228 301.653 179.021 301.098 179.021 300.384C179.021 300.13 179.061 299.821 179.14 299.456L179.499 297.886H180.074V298.362C180.09 298.663 180.178 298.862 180.337 298.957C180.513 299.052 180.816 299.099 181.247 299.099H186.201L186.344 299.29Z" fill="white"/>
<path d="M193.844 290.44H194.346V302.192C194.346 302.446 194.386 302.62 194.466 302.715C194.562 302.795 194.753 302.85 195.041 302.882L195.926 302.977V303.524C194.873 303.746 193.9 303.857 193.006 303.857C192.097 303.857 191.395 303.778 190.9 303.619C190.405 303.445 190.062 303.183 189.871 302.834C189.695 302.47 189.608 301.978 189.608 301.359V290.987L193.844 290.44Z" fill="white"/>
<path d="M213.033 299.575C213.033 300.558 212.81 301.375 212.363 302.025C211.917 302.66 211.167 303.152 210.114 303.5C209.061 303.833 207.632 304 205.829 304C204.027 304 202.598 303.833 201.545 303.5C200.492 303.152 199.742 302.66 199.296 302.025C198.849 301.375 198.626 300.558 198.626 299.575V292.319C198.626 292.145 198.586 292.026 198.506 291.963C198.442 291.899 198.29 291.844 198.051 291.796L197.261 291.653V291.154L202.957 290.44H203.46V300.289C203.46 301.082 203.524 301.692 203.652 302.121C203.779 302.533 204.011 302.834 204.346 303.025C204.697 303.199 205.191 303.286 205.829 303.286C206.468 303.286 206.954 303.199 207.289 303.025C207.64 302.834 207.88 302.525 208.007 302.097C208.135 301.669 208.199 301.066 208.199 300.289V292.319C208.199 292.145 208.159 292.026 208.079 291.963C208.015 291.899 207.864 291.844 207.625 291.796L206.835 291.653V291.154L212.531 290.44H213.033V299.575Z" fill="white"/>
<path d="M199.861 287.062C200.1 286.57 200.523 286.158 201.129 285.825C201.735 285.492 202.477 285.286 203.355 285.206L209.434 287.229V284.398H213.024V288.204H199.861V287.062Z" fill="white"/>
<path d="M220.778 295.198C220.778 295.642 220.898 295.967 221.137 296.173C221.377 296.379 221.688 296.483 222.071 296.483H224.751V297.196H222.071C221.337 297.196 220.97 297.624 220.97 298.481V300.289C220.97 301.082 221.034 301.692 221.161 302.121C221.305 302.533 221.552 302.834 221.903 303.025C222.27 303.199 222.797 303.286 223.483 303.286C224.169 303.286 224.688 303.199 225.039 303.025C225.406 302.834 225.653 302.525 225.781 302.097C225.924 301.669 225.996 301.066 225.996 300.289V290.94L230.615 290.393H230.83V299.575C230.83 300.558 230.599 301.375 230.136 302.025C229.69 302.66 228.924 303.152 227.839 303.5C226.77 303.833 225.318 304 223.483 304C221.664 304 220.236 303.841 219.199 303.524C218.162 303.191 217.436 302.731 217.021 302.144C216.622 301.542 216.423 300.804 216.423 299.932C216.423 298.108 217.515 297.046 219.701 296.744C218.648 296.57 217.859 296.237 217.332 295.745C216.821 295.253 216.566 294.572 216.566 293.699C216.566 292.668 216.965 291.883 217.763 291.344C218.577 290.805 219.614 290.535 220.874 290.535C221.608 290.535 222.214 290.622 222.693 290.797C223.172 290.971 223.642 291.233 224.105 291.582L223.674 292.082C223.483 291.923 223.252 291.788 222.98 291.677C222.709 291.55 222.462 291.487 222.238 291.487C221.664 291.487 221.273 291.653 221.066 291.986C220.874 292.304 220.778 292.827 220.778 293.556V295.198Z" fill="white"/>
<path d="M239.498 303.334C240.471 303.334 241.237 303.199 241.795 302.929C242.354 302.66 242.633 302.248 242.633 301.692C242.633 301.185 242.513 300.781 242.274 300.479C242.035 300.162 241.676 299.884 241.197 299.647C240.718 299.409 239.976 299.107 238.971 298.743C237.743 298.283 236.793 297.894 236.123 297.577C235.469 297.244 234.942 296.824 234.544 296.316C234.145 295.809 233.945 295.158 233.945 294.365C233.945 293.017 234.575 292.026 235.836 291.392C237.112 290.757 238.756 290.44 240.766 290.44C241.644 290.44 242.521 290.511 243.399 290.654C244.276 290.797 245.074 290.995 245.792 291.249L245.601 294.675H245.098C244.779 293.374 244.261 292.454 243.543 291.915C242.825 291.376 241.931 291.106 240.862 291.106C240 291.106 239.33 291.249 238.852 291.534C238.373 291.804 238.134 292.224 238.134 292.795C238.134 293.208 238.245 293.549 238.469 293.818C238.692 294.088 239.043 294.342 239.522 294.579C240 294.817 240.742 295.127 241.748 295.507C243.088 296.015 244.085 296.443 244.739 296.792C245.409 297.141 245.92 297.569 246.271 298.076C246.638 298.584 246.821 299.25 246.821 300.075C246.821 300.931 246.614 301.645 246.199 302.216C245.784 302.771 245.042 303.207 243.973 303.524C242.92 303.841 241.46 304 239.594 304C238.732 304 237.798 303.929 236.793 303.786C235.788 303.659 234.982 303.469 234.376 303.215L234.567 299.742H235.07C235.485 301.106 236.059 302.049 236.793 302.573C237.527 303.08 238.429 303.334 239.498 303.334Z" fill="white"/>
<path d="M245.715 287.918C244.822 288.204 243.896 288.347 242.939 288.347C241.966 288.347 241.256 288.172 240.809 287.823C240.346 287.459 240.115 286.991 240.115 286.42C240.115 285.88 240.267 285.444 240.57 285.111C240.873 284.762 241.256 284.485 241.719 284.279C242.165 284.072 242.812 283.827 243.657 283.541C244.311 283.335 244.862 283.153 245.309 282.994C245.739 282.82 246.162 282.621 246.577 282.399L246.984 282.97C245.899 283.557 245.117 284.128 244.638 284.683C244.16 285.222 243.92 285.817 243.92 286.467C243.92 286.816 243.976 287.07 244.088 287.229C244.2 287.387 244.391 287.466 244.662 287.466C244.918 287.466 245.109 287.443 245.237 287.395C245.364 287.347 245.452 287.316 245.5 287.3L245.715 287.918Z" fill="white"/>
<path d="M254.355 290.44H254.858V302.192C254.858 302.446 254.898 302.62 254.978 302.715C255.073 302.795 255.265 302.85 255.552 302.882L256.438 302.977V303.524C255.385 303.746 254.411 303.857 253.518 303.857C252.608 303.857 251.906 303.778 251.412 303.619C250.917 303.445 250.574 303.183 250.382 302.834C250.207 302.47 250.119 301.978 250.119 301.359V290.987L254.355 290.44Z" fill="white"/>
<path d="M262.943 295.198C262.943 295.642 263.062 295.967 263.302 296.173C263.541 296.379 263.852 296.483 264.235 296.483H266.915V297.196H264.235C263.501 297.196 263.134 297.624 263.134 298.481V300.289C263.134 301.082 263.198 301.692 263.325 302.121C263.469 302.533 263.716 302.834 264.067 303.025C264.434 303.199 264.961 303.286 265.647 303.286C266.333 303.286 266.852 303.199 267.203 303.025C267.57 302.834 267.817 302.525 267.945 302.097C268.088 301.669 268.16 301.066 268.16 300.289V290.94L272.779 290.393H272.995V299.575C272.995 300.558 272.763 301.375 272.301 302.025C271.854 302.66 271.088 303.152 270.003 303.5C268.934 303.833 267.482 304 265.647 304C263.828 304 262.4 303.841 261.363 303.524C260.326 303.191 259.6 302.731 259.185 302.144C258.786 301.542 258.587 300.804 258.587 299.932C258.587 298.108 259.68 297.046 261.865 296.744C260.812 296.57 260.023 296.237 259.496 295.745C258.986 295.253 258.73 294.572 258.73 293.699C258.73 292.668 259.129 291.883 259.927 291.344C260.741 290.805 261.778 290.535 263.038 290.535C263.772 290.535 264.379 290.622 264.857 290.797C265.336 290.971 265.807 291.233 266.269 291.582L265.838 292.082C265.647 291.923 265.416 291.788 265.144 291.677C264.873 291.55 264.626 291.487 264.402 291.487C263.828 291.487 263.437 291.653 263.23 291.986C263.038 292.304 262.943 292.827 262.943 293.556V295.198Z" fill="white"/>
<path d="M268.594 287.585C268.961 287.585 269.193 287.506 269.288 287.347C269.384 287.173 269.432 286.84 269.432 286.348V285.088H271.777V286.206C271.777 286.856 271.594 287.363 271.227 287.728C270.86 288.077 270.309 288.251 269.575 288.251C268.682 288.251 268.036 288.117 267.637 287.847C267.238 287.577 266.983 287.205 266.871 286.729C266.807 287.125 266.616 287.474 266.297 287.776C265.962 288.061 265.499 288.204 264.908 288.204H262.874C262.539 287.966 262.26 287.641 262.036 287.229C261.797 286.816 261.677 286.396 261.677 285.968C261.677 285.048 261.973 284.334 262.563 283.827C263.153 283.319 264.063 283.065 265.291 283.065H268.259C268.913 283.065 269.464 282.986 269.911 282.828C270.357 282.653 270.772 282.376 271.155 281.995L271.706 282.756C271.083 283.311 269.974 283.589 268.379 283.589H266.368C265.826 283.589 265.419 283.66 265.148 283.803C264.877 283.93 264.701 284.136 264.621 284.421C264.525 284.691 264.478 285.088 264.478 285.611V287.633H264.98C265.475 287.633 265.85 287.482 266.105 287.181C266.344 286.88 266.504 286.404 266.584 285.754H267.158C267.222 286.372 267.382 286.832 267.637 287.133C267.892 287.435 268.211 287.585 268.594 287.585Z" fill="white"/>
<path d="M287.262 303.715C286.736 303.715 286.473 303.461 286.473 302.953V302.144C285.978 302.652 285.316 303.088 284.486 303.453C283.672 303.818 282.763 304 281.758 304C280.018 304 278.782 303.675 278.048 303.025C277.314 302.359 276.947 301.351 276.947 300.003V292.319C276.947 292.145 276.907 292.026 276.827 291.963C276.764 291.899 276.612 291.844 276.373 291.796L275.583 291.653V291.154L281.279 290.44H281.782V300.289C281.782 301.209 281.901 301.851 282.141 302.216C282.38 302.565 282.843 302.739 283.529 302.739C284.103 302.739 284.622 302.612 285.084 302.359C285.563 302.089 286.01 301.748 286.425 301.336V292.319C286.425 292.145 286.385 292.026 286.305 291.963C286.241 291.899 286.09 291.844 285.85 291.796L285.06 291.653V291.154L290.757 290.44H291.259V302.549C291.259 302.723 291.291 302.842 291.355 302.906C291.435 302.969 291.594 303.025 291.834 303.072L292.623 303.215V303.715H287.262Z" fill="white"/>
<path d="M308.889 299.409C308.889 300.899 308.379 302.041 307.357 302.834C306.352 303.611 304.589 304 302.068 304C299.547 304 297.776 303.611 296.755 302.834C295.734 302.041 295.223 300.899 295.223 299.409V297.244C295.223 296.8 295.303 296.427 295.463 296.126C295.638 295.809 295.893 295.444 296.228 295.031C296.579 294.619 296.843 294.246 297.018 293.913C297.21 293.564 297.305 293.144 297.305 292.653C297.305 292.177 297.218 291.828 297.042 291.606C296.883 291.368 296.587 291.249 296.157 291.249C295.662 291.249 295.271 291.384 294.984 291.653C294.713 291.907 294.577 292.288 294.577 292.795C294.577 293.081 294.601 293.342 294.649 293.58H294.003C293.907 293.342 293.859 293.065 293.859 292.748C293.859 292.034 294.122 291.471 294.649 291.059C295.191 290.646 296.252 290.44 297.832 290.44C300.353 290.44 301.613 291.281 301.613 292.962C301.613 293.327 301.55 293.66 301.422 293.961C301.31 294.246 301.127 294.587 300.872 294.984C300.616 295.396 300.417 295.777 300.273 296.126C300.13 296.459 300.058 296.847 300.058 297.291V300.194C300.058 301.003 300.106 301.629 300.201 302.073C300.313 302.501 300.505 302.818 300.776 303.025C301.063 303.231 301.494 303.334 302.068 303.334C302.643 303.334 303.065 303.231 303.337 303.025C303.624 302.818 303.815 302.501 303.911 302.073C304.007 301.629 304.055 301.003 304.055 300.194V298.219C304.055 297.41 304.023 296.792 303.959 296.364C303.895 295.92 303.775 295.602 303.6 295.412C303.44 295.222 303.209 295.127 302.906 295.127H302.116V294.46H303.026C303.488 294.46 303.807 294.349 303.983 294.127C304.158 293.905 304.246 293.556 304.246 293.081V290.797L308.865 290.25H309.081V292.153C309.081 292.962 308.841 293.604 308.363 294.08C307.9 294.556 307.278 294.849 306.496 294.96C307.326 295.071 307.932 295.38 308.315 295.888C308.698 296.379 308.889 297.149 308.889 298.195V299.409Z" fill="white"/>
<path d="M295.735 287.062C295.974 286.57 296.397 286.158 297.003 285.825C297.61 285.492 298.352 285.286 299.229 285.206L303.681 286.681V284.398H305.643V287.038H306.936V284.398H308.898V288.204H295.735V287.062Z" fill="white"/>
<path d="M308.443 278.926H308.779V283.232H305.38V279.283L308.443 278.926Z" fill="white"/>
<path d="M323.163 303.715C322.636 303.715 322.373 303.461 322.373 302.953V302.144C321.878 302.652 321.216 303.088 320.386 303.453C319.573 303.818 318.663 304 317.658 304C315.919 304 314.682 303.675 313.948 303.025C313.214 302.359 312.847 301.351 312.847 300.003V292.319C312.847 292.145 312.807 292.026 312.728 291.963C312.664 291.899 312.512 291.844 312.273 291.796L311.483 291.653V291.154L317.179 290.44H317.682V300.289C317.682 301.209 317.801 301.851 318.041 302.216C318.28 302.565 318.743 302.739 319.429 302.739C320.003 302.739 320.522 302.612 320.985 302.359C321.463 302.089 321.91 301.748 322.325 301.336V292.319C322.325 292.145 322.285 292.026 322.205 291.963C322.141 291.899 321.99 291.844 321.751 291.796L320.961 291.653V291.154L326.657 290.44H327.159V302.549C327.159 302.723 327.191 302.842 327.255 302.906C327.335 302.969 327.495 303.025 327.734 303.072L328.524 303.215V303.715H323.163Z" fill="white"/>
<path d="M332.942 287.062C332.32 287.681 331.642 287.99 330.908 287.99C330.286 287.99 329.791 287.792 329.424 287.395C329.073 286.999 328.898 286.428 328.898 285.682C328.898 284.556 329.344 283.676 330.238 283.042C331.131 282.391 332.432 282.066 334.139 282.066C335.783 282.066 337.115 282.399 338.136 283.065C339.157 283.732 339.668 284.667 339.668 285.873C339.668 286.57 339.58 287.181 339.404 287.704C339.229 288.212 338.982 288.688 338.663 289.132C338.343 289.576 337.881 290.131 337.274 290.797V302.192C337.274 302.446 337.314 302.62 337.394 302.715C337.49 302.795 337.681 302.85 337.968 302.882L338.854 302.977V303.524C337.801 303.746 336.828 303.857 335.934 303.857C335.025 303.857 334.323 303.778 333.828 303.619C333.333 303.445 332.99 303.183 332.799 302.834C332.623 302.47 332.536 301.978 332.536 301.359V290.987C333.365 290.147 333.956 289.512 334.307 289.084C334.674 288.656 334.969 288.14 335.192 287.538C335.431 286.935 335.551 286.19 335.551 285.302C335.551 284.62 335.336 284.08 334.905 283.684C334.474 283.287 333.804 283.089 332.895 283.089C331.857 283.089 331.044 283.343 330.453 283.85C329.879 284.342 329.592 284.992 329.592 285.801C330.932 285.992 332.049 286.237 332.942 286.539V287.062Z" fill="white"/>
<path d="M340.537 297.196V296.506H344.774C345.109 296.506 345.356 296.578 345.516 296.72C345.675 296.863 345.803 297.093 345.898 297.41L347.526 303.096C348.26 303.017 348.802 302.462 349.153 301.431C349.52 300.4 349.704 298.965 349.704 297.125C349.704 295.19 349.385 293.779 348.747 292.89C348.108 291.986 347.063 291.534 345.611 291.534C344.782 291.534 343.976 291.637 343.194 291.844C342.428 292.034 341.726 292.312 341.088 292.676L340.657 292.058C341.551 291.55 342.5 291.154 343.505 290.868C344.51 290.583 345.787 290.44 347.334 290.44C349.744 290.44 351.579 290.979 352.839 292.058C354.116 293.136 354.754 294.778 354.754 296.982C354.754 299.091 354.156 300.741 352.959 301.93C351.762 303.12 349.999 303.715 347.67 303.715H343.385L341.471 297.196H340.537Z" fill="white"/>
</svg>
